
<svg width="400" height="200" viewBox="0 0 400 200" xmlns="http://www.w3.org/2000/svg">
  <!-- Background for preview context (optional, remove if you want transparency) -->
  <rect width="400" height="200" fill="none" />
  
  <g transform="translate(20, 40)">
    <!-- Buddy Mascot Body -->
    <path d="M45.7,21.9c0-12.1-9.8-21.9-21.9-21.9S2,9.8,2,21.9c0,9.1,5.6,16.9,13.6,20.2l-0.7,5.7c-0.1,0.8,0.5,1.5,1.3,1.5c0.1,0,0.2,0,0.3-0.1l7.3-5.2c1.3,0.2,2.6,0.2,4,0.2C35.9,43.8,45.7,34,45.7,21.9z" fill="#50C878" stroke="#004D40" stroke-width="3" />
    
    <!-- Eyes -->
    <circle cx="15.8" cy="20.5" r="3" fill="#004D40" />
    <circle cx="32.8" cy="20.5" r="3" fill="#004D40" />
    
    <!-- Smile -->
    <path d="M18.8,29.5c0,0,3,4,8,0" fill="none" stroke="#004D40" stroke-width="3" stroke-linecap="round" />
    
    <!-- The Plus Sign -->
    <g transform="translate(42, 26) scale(0.7)">
      <path d="M15,2v26 M2,15h26" fill="none" stroke="#004D40" stroke-width="17" stroke-linecap="round" />
      <path d="M15,2v26 M2,15h26" fill="none" stroke="#FFCB05" stroke-width="11" stroke-linecap="round" />
    </g>
  </g>
  
  <!-- Moody Buddy Text -->
  <g transform="translate(135, 95)">
    <text font-family="Nunito, Arial, sans-serif" font-weight="900" font-size="58" fill="#004D40" letter-spacing="-3">Moody</text>
    <text y="50" font-family="Nunito, Arial, sans-serif" font-weight="900" font-size="58" fill="#004D40" letter-spacing="-3">Buddy</text>
  </g>
</svg>
